<?xml version="1.0" standalone="no"?>
<!DOCTYPE svg PUBLIC "-//W3C//DTD SVG 20010904//EN"
 "http://www.w3.org/TR/2001/REC-SVG-20010904/DTD/svg10.dtd">
<svg version="1.0" xmlns="http://www.w3.org/2000/svg"
 width="500.000000pt" height="500.000000pt" viewBox="0 0 500.000000 500.000000"
 preserveAspectRatio="xMidYMid meet">
<metadata>
Created by potrace 1.11, written by Peter Selinger 2001-2013
</metadata>
<g transform="translate(0.000000,500.000000) scale(0.100000,-0.100000)"
fill="#000000" stroke="none">
<path d="M1365 4306 c-99 -31 -152 -84 -180 -179 -23 -76 -23 -3168 0 -3244
19 -65 65 -122 123 -153 l47 -25 1084 -3 c1232 -3 1157 -7 1240 76 28 29 51
63 59 88 9 32 12 411 12 1646 l0 1604 -26 52 c-31 62 -80 105 -152 132 -51 19
-80 20 -1110 19 -823 0 -1066 -3 -1097 -13z m2073 -276 c48 -32 52 -57 52
-359 0 -319 -4 -341 -64 -366 -30 -13 -172 -15 -967 -15 -1041 0 -985 -4
-1011 68 -9 27 -13 112 -13 312 1 311 6 338 67 365 50 22 1902 17 1936 -5z"/>
<path d="M1587 3927 c-12 -4 -25 -13 -29 -20 -4 -7 -8 -111 -8 -232 0 -184 3
-224 16 -243 l15 -22 879 0 c785 0 880 2 894 16 14 13 16 49 16 243 0 166 -3
232 -12 244 -12 15 -82 17 -881 19 -478 2 -878 -1 -890 -5z"/>
</g>
</svg>
